<?xml version="1.0" encoding="UTF-8" standalone="no"?>
<!-- Created with Inkscape (http://www.inkscape.org/) -->

<svg
   width="200"
   height="60"
   viewBox="0 0 52.916667 15.875"
   version="1.1"
   id="svg74011"
   inkscape:version="1.2.2 (732a01da63, 2022-12-09)"
   sodipodi:docname="unpaisgray.svg"
   xmlns:inkscape="http://www.inkscape.org/namespaces/inkscape"
   xmlns:sodipodi="http://sodipodi.sourceforge.net/DTD/sodipodi-0.dtd"
   xmlns="http://www.w3.org/2000/svg"
   xmlns:svg="http://www.w3.org/2000/svg">
  <sodipodi:namedview
     id="namedview74013"
     pagecolor="#ffffff"
     bordercolor="#000000"
     borderopacity="0.25"
     inkscape:showpageshadow="2"
     inkscape:pageopacity="0.0"
     inkscape:pagecheckerboard="0"
     inkscape:deskcolor="#d1d1d1"
     inkscape:document-units="mm"
     showgrid="false"
     inkscape:zoom="3.1251122"
     inkscape:cx="73.917345"
     inkscape:cy="-0.95996552"
     inkscape:window-width="1920"
     inkscape:window-height="1017"
     inkscape:window-x="-8"
     inkscape:window-y="-8"
     inkscape:window-maximized="1"
     inkscape:current-layer="layer1" />
  <defs
     id="defs74008" />
  <g
     inkscape:label="Capa 1"
     inkscape:groupmode="layer"
     id="layer1">
    <g
       id="g73965"
       transform="matrix(0.83333333,0,0,0.83333333,-130.61345,-242.46638)"
       style="fill:#666666">
      <path
         d="m 178.58697,299.2197 v -7.66719 h 1.38199 v 7.66719 z"
         style="font-style:normal;font-variant:normal;font-weight:500;font-stretch:normal;font-size:239.129px;line-height:1;font-family:Oswald;-inkscape-font-specification:'Oswald Medium';text-align:end;letter-spacing:0px;word-spacing:0px;text-anchor:end;fill:#666666;fill-opacity:1;stroke:none;stroke-width:0.0395839"
         id="path9750-6"
         inkscape:connector-curvature="0" />
      <path
         d="m 181.07066,299.2197 v -5.47116 h 1.28734 v 0.54901 q 0.29344,-0.28397 0.61527,-0.45435 0.33129,-0.17985 0.70993,-0.17985 0.34077,0 0.53954,0.17038 0.19878,0.16092 0.29343,0.43542 0.0947,0.27451 0.0947,0.59634 v 4.35421 h -1.28735 v -4.09863 q 0,-0.24611 -0.0757,-0.37863 -0.0757,-0.13252 -0.29343,-0.13252 -0.13253,0 -0.29344,0.0757 -0.15146,0.0757 -0.3029,0.18931 v 4.34475 z"
         style="font-style:normal;font-variant:normal;font-weight:500;font-stretch:normal;font-size:239.129px;line-height:1;font-family:Oswald;-inkscape-font-specification:'Oswald Medium';text-align:end;letter-spacing:0px;word-spacing:0px;text-anchor:end;fill:#666666;fill-opacity:1;stroke:none;stroke-width:0.0395839"
         id="path9752-9"
         inkscape:connector-curvature="0" />
      <path
         d="m 187.17233,301.01818 q -0.55847,0 -0.98443,-0.11359 -0.42595,-0.11359 -0.66259,-0.35023 -0.23664,-0.23664 -0.23664,-0.61527 0,-0.25557 0.10412,-0.46382 0.11364,-0.19877 0.30289,-0.35023 0.18931,-0.15145 0.40701,-0.25557 -0.31236,-0.0852 -0.48275,-0.2745 -0.16091,-0.18932 -0.16091,-0.45436 0,-0.32183 0.16091,-0.54901 0.16093,-0.22717 0.4449,-0.48275 -0.29343,-0.23664 -0.4449,-0.58687 -0.14198,-0.35969 -0.14198,-0.9371 0,-0.62473 0.19879,-1.05069 0.20824,-0.43542 0.59633,-0.65313 0.39756,-0.21771 0.9655,-0.21771 0.43543,0 0.72885,0.13252 0.29345,0.12305 0.48276,0.37862 0.0757,-0.11359 0.26504,-0.28397 0.18932,-0.17038 0.43542,-0.28397 l 0.17038,-0.0757 0.31237,0.69099 q -0.10412,0.0284 -0.28398,0.0947 -0.17037,0.0662 -0.34076,0.14199 -0.17038,0.0757 -0.26503,0.13251 0.0852,0.18932 0.14198,0.47329 0.0568,0.28397 0.0568,0.53954 0,0.57741 -0.17985,1.00336 -0.17985,0.42596 -0.55847,0.6626 -0.36916,0.22718 -0.9655,0.22718 -0.19878,0 -0.3881,-0.0284 -0.18931,-0.0379 -0.35023,-0.0852 -0.0568,0.0852 -0.11364,0.17985 -0.0474,0.0947 -0.0474,0.19878 0,0.10411 0.11364,0.17038 0.11364,0.0662 0.37864,0.0947 l 1.15479,0.11359 q 0.67207,0.0663 0.9939,0.42595 0.32184,0.35023 0.32184,0.95604 0,0.49221 -0.22718,0.82351 -0.2177,0.3313 -0.691,0.50168 -0.46381,0.17038 -1.21161,0.17038 z m 0.14199,-0.9655 q 0.53009,0 0.79512,-0.10411 0.26504,-0.10412 0.26504,-0.37863 0,-0.15145 -0.0663,-0.24611 -0.0663,-0.0947 -0.23665,-0.15145 -0.17036,-0.0662 -0.48274,-0.0947 l -0.9371,-0.0852 q -0.10412,0.0852 -0.1893,0.17985 -0.0757,0.0852 -0.12306,0.18931 -0.0474,0.10412 -0.0474,0.21771 0,0.23664 0.22718,0.35023 0.22716,0.12305 0.7951,0.12305 z m -0.0757,-3.37924 q 0.17039,0 0.27451,-0.0568 0.10412,-0.0663 0.16092,-0.19878 0.0568,-0.14198 0.0757,-0.35023 0.0189,-0.20824 0.0189,-0.48275 0,-0.2745 -0.0189,-0.48275 -0.0189,-0.20824 -0.0757,-0.35023 -0.0474,-0.14198 -0.15145,-0.20824 -0.10412,-0.0663 -0.28398,-0.0663 -0.17038,0 -0.28397,0.0663 -0.10412,0.0663 -0.16091,0.20824 -0.0474,0.13252 -0.0757,0.34077 -0.0189,0.20824 -0.0189,0.49221 0,0.26504 0.0189,0.47329 0.0189,0.19878 0.0757,0.34076 0.0568,0.13252 0.16091,0.20825 0.11364,0.0662 0.28397,0.0662 z"
         style="font-style:normal;font-variant:normal;font-weight:500;font-stretch:normal;font-size:239.129px;line-height:1;font-family:Oswald;-inkscape-font-specification:'Oswald Medium';text-align:end;letter-spacing:0px;word-spacing:0px;text-anchor:end;fill:#666666;fill-opacity:1;stroke:none;stroke-width:0.0395839"
         id="path9754-0"
         inkscape:connector-curvature="0" />
      <path
         d="m 191.63822,299.3049 q -0.61528,0 -1.00337,-0.22718 -0.38809,-0.23664 -0.5774,-0.68153 -0.17986,-0.45435 -0.17986,-1.08855 v -1.64703 q 0,-0.65313 0.17986,-1.09802 0.18931,-0.44489 0.5774,-0.67206 0.39755,-0.22718 1.00337,-0.22718 0.65313,0 1.01282,0.24611 0.36916,0.24611 0.52061,0.71939 0.16092,0.46382 0.16092,1.13588 v 0.77619 h -2.17711 V 297.62 q 0,0.26504 0.0474,0.43543 0.0568,0.17038 0.17039,0.2461 0.11364,0.0757 0.2745,0.0757 0.17039,0 0.27452,-0.0757 0.10412,-0.0852 0.15144,-0.23664 0.0474,-0.16092 0.0474,-0.39756 v -0.45435 h 1.20213 v 0.36916 q 0,0.83298 -0.41649,1.27787 -0.41649,0.44489 -1.26839,0.44489 z m -0.48276,-3.39818 h 0.96551 v -0.52061 q 0,-0.28398 -0.0474,-0.45436 -0.0474,-0.17985 -0.15144,-0.25557 -0.10412,-0.0852 -0.29345,-0.0852 -0.17039,0 -0.2745,0.0852 -0.10412,0.0852 -0.15146,0.28397 -0.0474,0.19878 -0.0474,0.56794 z"
         style="font-style:normal;font-variant:normal;font-weight:500;font-stretch:normal;font-size:239.129px;line-height:1;font-family:Oswald;-inkscape-font-specification:'Oswald Medium';text-align:end;letter-spacing:0px;word-spacing:0px;text-anchor:end;fill:#666666;fill-opacity:1;stroke:none;stroke-width:0.0395839"
         id="path9756-0"
         inkscape:connector-curvature="0" />
      <path
         d="m 194.19691,299.2197 v -5.47116 h 1.28733 v 0.54901 q 0.29344,-0.28397 0.61526,-0.45435 0.33131,-0.17985 0.70993,-0.17985 0.34076,0 0.53955,0.17038 0.19878,0.16092 0.29344,0.43542 0.0946,0.27451 0.0946,0.59634 v 4.35421 h -1.28732 v -4.09863 q 0,-0.24611 -0.0757,-0.37863 -0.0757,-0.13252 -0.29344,-0.13252 -0.13251,0 -0.29343,0.0757 -0.15144,0.0757 -0.3029,0.18931 v 4.34475 z"
         style="font-style:normal;font-variant:normal;font-weight:500;font-stretch:normal;font-size:239.129px;line-height:1;font-family:Oswald;-inkscape-font-specification:'Oswald Medium';text-align:end;letter-spacing:0px;word-spacing:0px;text-anchor:end;fill:#666666;fill-opacity:1;stroke:none;stroke-width:0.0395839"
         id="path9758-2"
         inkscape:connector-curvature="0" />
      <path
         d="m 198.72726,299.2197 v -5.47116 h 1.28734 v 5.47116 z m 0,-6.342 v -1.06962 h 1.28734 v 1.06962 z"
         style="font-style:normal;font-variant:normal;font-weight:500;font-stretch:normal;font-size:239.129px;line-height:1;font-family:Oswald;-inkscape-font-specification:'Oswald Medium';text-align:end;letter-spacing:0px;word-spacing:0px;text-anchor:end;fill:#666666;fill-opacity:1;stroke:none;stroke-width:0.0395839"
         id="path9760-1"
         inkscape:connector-curvature="0" />
      <path
         d="m 202.69383,299.3049 q -0.61526,0 -1.00337,-0.22718 -0.38809,-0.23664 -0.57739,-0.68153 -0.17986,-0.45435 -0.17986,-1.08855 v -1.64703 q 0,-0.65313 0.17986,-1.09802 0.1893,-0.44489 0.57739,-0.67206 0.39757,-0.22718 1.00337,-0.22718 0.65314,0 1.01283,0.24611 0.36916,0.24611 0.5206,0.71939 0.16093,0.46382 0.16093,1.13588 v 0.77619 h -2.17711 V 297.62 q 0,0.26504 0.0474,0.43543 0.0568,0.17038 0.17038,0.2461 0.11364,0.0757 0.27451,0.0757 0.17038,0 0.27451,-0.0757 0.10412,-0.0852 0.15144,-0.23664 0.0474,-0.16092 0.0474,-0.39756 v -0.45435 h 1.20213 v 0.36916 q 0,0.83298 -0.41648,1.27787 -0.4165,0.44489 -1.2684,0.44489 z m -0.48275,-3.39818 h 0.9655 v -0.52061 q 0,-0.28398 -0.0474,-0.45436 -0.0474,-0.17985 -0.15144,-0.25557 -0.10412,-0.0852 -0.29345,-0.0852 -0.17037,0 -0.2745,0.0852 -0.10412,0.0852 -0.15145,0.28397 -0.0474,0.19878 -0.0474,0.56794 z"
         style="font-style:normal;font-variant:normal;font-weight:500;font-stretch:normal;font-size:239.129px;line-height:1;font-family:Oswald;-inkscape-font-specification:'Oswald Medium';text-align:end;letter-spacing:0px;word-spacing:0px;text-anchor:end;fill:#666666;fill-opacity:1;stroke:none;stroke-width:0.0395839"
         id="path9762-0"
         inkscape:connector-curvature="0" />
      <path
         d="m 205.28092,299.2197 v -5.47116 h 1.28733 v 0.84245 q 0.28397,-0.48275 0.56795,-0.691 0.28396,-0.21771 0.62473,-0.21771 0.0568,0 0.0947,0.01 0.0474,0 0.10412,0.01 v 1.33467 q -0.11364,-0.0473 -0.25557,-0.0757 -0.13253,-0.0379 -0.27451,-0.0379 -0.25557,0 -0.46382,0.12305 -0.20823,0.12305 -0.39756,0.40702 v 3.76734 z"
         style="font-style:normal;font-variant:normal;font-weight:500;font-stretch:normal;font-size:239.129px;line-height:1;font-family:Oswald;-inkscape-font-specification:'Oswald Medium';text-align:end;letter-spacing:0px;word-spacing:0px;text-anchor:end;fill:#666666;fill-opacity:1;stroke:none;stroke-width:0.0395839"
         id="path9764-2"
         inkscape:connector-curvature="0" />
      <path
         d="m 208.67451,299.2197 v -5.47116 h 1.28734 v 5.47116 z m 0.25557,-6.00124 0.57741,-1.89313 h 1.2968 l -1.12641,1.89313 z"
         style="font-style:normal;font-variant:normal;font-weight:500;font-stretch:normal;font-size:239.129px;line-height:1;font-family:Oswald;-inkscape-font-specification:'Oswald Medium';text-align:end;letter-spacing:0px;word-spacing:0px;text-anchor:end;fill:#666666;fill-opacity:1;stroke:none;stroke-width:0.0395839"
         id="path9766-6"
         inkscape:connector-curvature="0" />
      <path
         d="m 212.06234,299.3049 q -0.36917,0 -0.63422,-0.18932 -0.26503,-0.19878 -0.40701,-0.49221 -0.14198,-0.30291 -0.14198,-0.62474 0,-0.51114 0.1893,-0.86137 0.18933,-0.35024 0.5017,-0.58688 0.31237,-0.23664 0.70991,-0.40702 0.39756,-0.17985 0.80459,-0.32183 v -0.47329 q 0,-0.23664 -0.0378,-0.39756 -0.0284,-0.16091 -0.12305,-0.2461 -0.0852,-0.0852 -0.27452,-0.0852 -0.1609,0 -0.26503,0.0757 -0.0947,0.0757 -0.14198,0.21771 -0.0378,0.13252 -0.0474,0.31237 l -0.0189,0.33129 -1.22108,-0.0473 q 0.0285,-0.94657 0.46384,-1.39145 0.44487,-0.45436 1.34411,-0.45436 0.82352,0 1.19268,0.45436 0.37864,0.45435 0.37864,1.23054 v 2.52733 q 0,0.3029 0.01,0.54901 0.0189,0.24611 0.0378,0.44489 0.0284,0.19878 0.0474,0.35023 h -1.15481 q -0.0284,-0.18932 -0.0757,-0.42596 -0.0378,-0.24611 -0.0567,-0.35969 -0.0947,0.3313 -0.35969,0.6058 -0.26505,0.26504 -0.7194,0.26504 z m 0.47328,-0.95604 q 0.12305,0 0.22717,-0.0568 0.11364,-0.0663 0.19879,-0.15146 0.0852,-0.0852 0.12305,-0.15145 v -1.52397 q -0.20825,0.12305 -0.39756,0.24611 -0.17985,0.12305 -0.32182,0.2745 -0.13254,0.14199 -0.20825,0.31237 -0.0663,0.17038 -0.0663,0.39756 0,0.3029 0.11364,0.48275 0.12306,0.17038 0.3313,0.17038 z"
         style="font-style:normal;font-variant:normal;font-weight:500;font-stretch:normal;font-size:239.129px;line-height:1;font-family:Oswald;-inkscape-font-specification:'Oswald Medium';text-align:end;letter-spacing:0px;word-spacing:0px;text-anchor:end;fill:#666666;fill-opacity:1;stroke:none;stroke-width:0.0395839"
         id="path9768-8"
         inkscape:connector-curvature="0" />
      <path
         d="m 182.25917,306.48751 q -0.50013,0 -0.76107,-0.38856 -0.2537,-0.38855 -0.2537,-1.24496 v -1.40355 q 0,-0.47578 0.0942,-0.8564 0.10143,-0.38062 0.31892,-0.60266 0.21745,-0.22996 0.58711,-0.22996 0.22472,0 0.41315,0.10309 0.19573,0.0951 0.35519,0.25374 v -2.12514 h 0.98577 v 6.42303 h -0.98577 v -0.32512 q -0.16672,0.18238 -0.35519,0.2934 -0.18843,0.10308 -0.39865,0.10308 z m 0.36241,-0.74539 q 0.0797,0 0.18123,-0.0396 0.10143,-0.0396 0.2102,-0.11101 v -2.94191 q -0.087,-0.0634 -0.18846,-0.10308 -0.10144,-0.0476 -0.2102,-0.0476 -0.21022,0 -0.29719,0.2141 -0.0797,0.20617 -0.0797,0.5075 v 1.71281 q 0,0.22996 0.0291,0.41234 0.029,0.18238 0.10875,0.2934 0.0869,0.10309 0.24643,0.10309 z"
         style="font-style:normal;font-variant:normal;font-weight:500;font-stretch:normal;font-size:153.12px;line-height:1;font-family:Oswald;-inkscape-font-specification:'Oswald Medium';text-align:end;letter-spacing:0px;word-spacing:0px;text-anchor:end;fill:#666666;fill-opacity:1;stroke:none;stroke-width:0.0495125"
         id="path9719-8"
         inkscape:connector-curvature="0" />
      <path
         d="m 186.01133,306.48751 q -0.47114,0 -0.76831,-0.19032 -0.29718,-0.19824 -0.44216,-0.57093 -0.13772,-0.38063 -0.13772,-0.91191 v -1.37977 q 0,-0.54714 0.13772,-0.91984 0.14498,-0.37269 0.44216,-0.563 0.30443,-0.19032 0.76831,-0.19032 0.50015,0 0.77558,0.20618 0.28269,0.20617 0.39866,0.60265 0.12322,0.38855 0.12322,0.95156 v 0.65023 h -1.66712 v 0.90399 q 0,0.22203 0.0362,0.36476 0.0435,0.14273 0.13047,0.20617 0.087,0.0634 0.21022,0.0634 0.13047,0 0.2102,-0.0634 0.0797,-0.0714 0.11596,-0.19824 0.0362,-0.1348 0.0362,-0.33305 v -0.38062 h 0.92056 v 0.30926 q 0,0.69781 -0.31893,1.0705 -0.31894,0.3727 -0.97129,0.3727 z m -0.36966,-2.84676 h 0.73932 v -0.43613 q 0,-0.23789 -0.0362,-0.38062 -0.0362,-0.15066 -0.11596,-0.2141 -0.0797,-0.0714 -0.2247,-0.0714 -0.13048,0 -0.21021,0.0714 -0.0797,0.0714 -0.11596,0.23789 -0.0362,0.16652 -0.0362,0.47578 z"
         style="font-style:normal;font-variant:normal;font-weight:500;font-stretch:normal;font-size:153.12px;line-height:1;font-family:Oswald;-inkscape-font-specification:'Oswald Medium';text-align:end;letter-spacing:0px;word-spacing:0px;text-anchor:end;fill:#666666;fill-opacity:1;stroke:none;stroke-width:0.0495125"
         id="path9721-9"
         inkscape:connector-curvature="0" />
      <path
         d="m 191.27003,306.50337 q -0.52913,0 -0.8843,-0.22203 -0.35518,-0.22997 -0.53638,-0.6661 -0.18121,-0.43613 -0.20295,-1.0705 l 0.92053,-0.19824 q 0.0145,0.37269 0.0797,0.65816 0.0725,0.28547 0.21021,0.44406 0.14496,0.15066 0.3769,0.15066 0.26096,0 0.36968,-0.16652 0.10875,-0.17445 0.10875,-0.43613 0,-0.42027 -0.17396,-0.68988 -0.17396,-0.26961 -0.4639,-0.53922 l -0.73933,-0.71367 q -0.31168,-0.2934 -0.50014,-0.65023 -0.18121,-0.36477 -0.18121,-0.89605 0,-0.76125 0.40591,-1.1736 0.40591,-0.41234 1.109,-0.41234 0.41315,0 0.68859,0.14273 0.27545,0.13481 0.43491,0.38063 0.16671,0.24582 0.24644,0.56301 0.0797,0.30925 0.10143,0.65816 l -0.91331,0.17445 q -0.0145,-0.30133 -0.0652,-0.53922 -0.0435,-0.23789 -0.1667,-0.37269 -0.11596,-0.13481 -0.34792,-0.13481 -0.2392,0 -0.36967,0.17446 -0.12323,0.16652 -0.12323,0.42027 0,0.32512 0.12323,0.53922 0.12322,0.20617 0.35517,0.4282 l 0.73208,0.70574 q 0.36242,0.33305 0.61611,0.78504 0.26095,0.44406 0.26095,1.07843 0,0.45992 -0.18846,0.81676 -0.18121,0.35683 -0.51463,0.563 -0.32618,0.19825 -0.76833,0.19825 z"
         style="font-style:normal;font-variant:normal;font-weight:500;font-stretch:normal;font-size:153.12px;line-height:1;font-family:Oswald;-inkscape-font-specification:'Oswald Medium';text-align:end;letter-spacing:0px;word-spacing:0px;text-anchor:end;fill:#666666;fill-opacity:1;stroke:none;stroke-width:0.0495125"
         id="path9723-0"
         inkscape:connector-curvature="0" />
      <path
         d="m 193.28021,306.41614 v -4.58335 h 0.98576 v 4.58335 z m 0,-5.31288 v -0.89605 h 0.98576 v 0.89605 z"
         style="font-style:normal;font-variant:normal;font-weight:500;font-stretch:normal;font-size:153.12px;line-height:1;font-family:Oswald;-inkscape-font-specification:'Oswald Medium';text-align:end;letter-spacing:0px;word-spacing:0px;text-anchor:end;fill:#666666;fill-opacity:1;stroke:none;stroke-width:0.0495125"
         id="path9725-0"
         inkscape:connector-curvature="0" />
      <path
         d="m 196.18714,306.48751 q -0.52913,0 -0.86981,-0.30926 -0.34068,-0.30926 -0.48564,-0.90398 l 0.7321,-0.30926 q 0.0869,0.37269 0.23194,0.57094 0.14496,0.19824 0.37691,0.19824 0.17396,0 0.26094,-0.0952 0.087,-0.0952 0.087,-0.26168 0,-0.19031 -0.10875,-0.34098 -0.10144,-0.15859 -0.35517,-0.38855 l -0.50738,-0.46785 q -0.27544,-0.26168 -0.4494,-0.53129 -0.16671,-0.27754 -0.16671,-0.68988 0,-0.37269 0.15221,-0.63437 0.15946,-0.26961 0.42765,-0.41235 0.27544,-0.15066 0.60886,-0.15066 0.50739,0 0.81182,0.33305 0.31168,0.32511 0.39865,0.8564 l -0.64509,0.30133 q -0.0362,-0.19031 -0.10876,-0.34891 -0.0652,-0.16652 -0.17396,-0.2696 -0.10876,-0.10308 -0.25369,-0.10308 -0.15222,0 -0.24645,0.10308 -0.087,0.10308 -0.087,0.26167 0,0.13481 0.10143,0.27754 0.10876,0.14274 0.30442,0.32512 l 0.51465,0.5075 q 0.16669,0.15859 0.31892,0.34097 0.15222,0.18239 0.25369,0.41235 0.10143,0.22203 0.10143,0.51542 0,0.39649 -0.1667,0.6661 -0.15946,0.26961 -0.44215,0.41234 -0.27543,0.1348 -0.61611,0.1348 z"
         style="font-style:normal;font-variant:normal;font-weight:500;font-stretch:normal;font-size:153.12px;line-height:1;font-family:Oswald;-inkscape-font-specification:'Oswald Medium';text-align:end;letter-spacing:0px;word-spacing:0px;text-anchor:end;fill:#666666;fill-opacity:1;stroke:none;stroke-width:0.0495125"
         id="path9727-7"
         inkscape:connector-curvature="0" />
      <path
         d="m 199.1618,306.47165 q -0.39867,0 -0.63061,-0.14274 -0.22469,-0.14273 -0.31892,-0.41234 -0.0942,-0.26961 -0.0942,-0.6423 v -2.72781 h -0.42042 v -0.71367 h 0.42042 v -1.37183 h 0.99301 v 1.37183 h 0.63787 v 0.71367 h -0.63787 v 2.63265 q 0,0.23789 0.0942,0.34098 0.0942,0.0952 0.28268,0.0952 0.0797,0 0.15222,-0.008 0.0797,-0.008 0.15222,-0.0159 v 0.82468 q -0.12323,0.0159 -0.28994,0.0317 -0.15946,0.0238 -0.34067,0.0238 z"
         style="font-style:normal;font-variant:normal;font-weight:500;font-stretch:normal;font-size:153.12px;line-height:1;font-family:Oswald;-inkscape-font-specification:'Oswald Medium';text-align:end;letter-spacing:0px;word-spacing:0px;text-anchor:end;fill:#666666;fill-opacity:1;stroke:none;stroke-width:0.0495125"
         id="path9729-5"
         inkscape:connector-curvature="0" />
      <path
         d="m 201.62648,306.48751 q -0.47115,0 -0.76834,-0.19032 -0.29718,-0.19824 -0.44215,-0.57093 -0.13773,-0.38063 -0.13773,-0.91191 v -1.37977 q 0,-0.54714 0.13773,-0.91984 0.14497,-0.37269 0.44215,-0.563 0.30443,-0.19032 0.76834,-0.19032 0.50012,0 0.77558,0.20618 0.28268,0.20617 0.39865,0.60265 0.12322,0.38855 0.12322,0.95156 v 0.65023 h -1.66713 v 0.90399 q 0,0.22203 0.0363,0.36476 0.0435,0.14273 0.13046,0.20617 0.087,0.0634 0.2102,0.0634 0.13047,0 0.2102,-0.0634 0.0797,-0.0714 0.11596,-0.19824 0.0362,-0.1348 0.0362,-0.33305 v -0.38062 h 0.92053 v 0.30926 q 0,0.69781 -0.31892,1.0705 -0.31893,0.3727 -0.97127,0.3727 z m -0.36968,-2.84676 h 0.73934 v -0.43613 q 0,-0.23789 -0.0362,-0.38062 -0.0362,-0.15066 -0.11596,-0.2141 -0.0797,-0.0714 -0.2247,-0.0714 -0.13046,0 -0.21019,0.0714 -0.0797,0.0714 -0.11596,0.23789 -0.0362,0.16652 -0.0362,0.47578 z"
         style="font-style:normal;font-variant:normal;font-weight:500;font-stretch:normal;font-size:153.12px;line-height:1;font-family:Oswald;-inkscape-font-specification:'Oswald Medium';text-align:end;letter-spacing:0px;word-spacing:0px;text-anchor:end;fill:#666666;fill-opacity:1;stroke:none;stroke-width:0.0495125"
         id="path9731-5"
         inkscape:connector-curvature="0" />
      <path
         d="m 203.58579,306.41614 v -4.58335 h 0.94954 v 0.39648 q 0.21745,-0.25374 0.47114,-0.36476 0.2537,-0.11895 0.51464,-0.11895 0.24644,0 0.42765,0.13481 0.18846,0.1348 0.27544,0.4282 0.2392,-0.30133 0.50739,-0.4282 0.26819,-0.13481 0.55088,-0.13481 0.22469,0 0.39866,0.12688 0.17396,0.11895 0.27543,0.36476 0.10143,0.23789 0.10143,0.60266 v 3.57628 h -0.94229 v -3.48113 q 0,-0.26168 -0.0797,-0.35683 -0.0797,-0.10308 -0.22471,-0.10308 -0.11595,0 -0.26094,0.0714 -0.13771,0.0714 -0.25369,0.19824 0,0.0238 0,0.0476 0,0.0159 0,0.0476 v 3.57628 h -0.93504 v -3.48113 q 0,-0.26168 -0.087,-0.35683 -0.0797,-0.10308 -0.2247,-0.10308 -0.11596,0 -0.25369,0.0714 -0.13772,0.0714 -0.26094,0.19824 v 3.67143 z"
         style="font-style:normal;font-variant:normal;font-weight:500;font-stretch:normal;font-size:153.12px;line-height:1;font-family:Oswald;-inkscape-font-specification:'Oswald Medium';text-align:end;letter-spacing:0px;word-spacing:0px;text-anchor:end;fill:#666666;fill-opacity:1;stroke:none;stroke-width:0.0495125"
         id="path9733-3"
         inkscape:connector-curvature="0" />
      <path
         d="m 209.60739,306.48751 q -0.2827,0 -0.48565,-0.1586 -0.20296,-0.16652 -0.31168,-0.41234 -0.10876,-0.25375 -0.10876,-0.52336 0,-0.4282 0.14497,-0.7216 0.14498,-0.2934 0.38417,-0.49164 0.2392,-0.19824 0.54362,-0.34097 0.30443,-0.15067 0.61612,-0.26961 v -0.39649 q 0,-0.19824 -0.029,-0.33304 -0.0217,-0.13481 -0.0942,-0.20617 -0.0652,-0.0714 -0.2102,-0.0714 -0.12323,0 -0.20296,0.0634 -0.0725,0.0634 -0.10876,0.18239 -0.029,0.11101 -0.0362,0.26168 l -0.0145,0.27753 -0.93504,-0.0396 q 0.0217,-0.79297 0.35516,-1.16566 0.34068,-0.38063 1.02927,-0.38063 0.63061,0 0.9133,0.38063 0.28994,0.38062 0.28994,1.03085 v 2.11722 q 0,0.25375 0.007,0.45992 0.0145,0.20618 0.029,0.3727 0.0217,0.16652 0.0363,0.2934 h -0.88431 q -0.0217,-0.1586 -0.058,-0.35684 -0.0291,-0.20617 -0.0435,-0.30133 -0.0725,0.27754 -0.27544,0.5075 -0.20294,0.22203 -0.55086,0.22203 z m 0.36239,-0.8009 q 0.0942,0 0.17397,-0.0476 0.087,-0.0555 0.15222,-0.12687 0.0652,-0.0714 0.0942,-0.12688 v -1.27667 q -0.15946,0.10308 -0.30443,0.20617 -0.13772,0.10308 -0.24644,0.22996 -0.10144,0.11895 -0.15948,0.26168 -0.0508,0.14273 -0.0508,0.33304 0,0.25375 0.0869,0.40442 0.0942,0.14273 0.25369,0.14273 z"
         style="font-style:normal;font-variant:normal;font-weight:500;font-stretch:normal;font-size:153.12px;line-height:1;font-family:Oswald;-inkscape-font-specification:'Oswald Medium';text-align:end;letter-spacing:0px;word-spacing:0px;text-anchor:end;fill:#666666;fill-opacity:1;stroke:none;stroke-width:0.0495125"
         id="path9735-9"
         inkscape:connector-curvature="0" />
      <path
         d="m 213.20382,306.48751 q -0.52914,0 -0.86981,-0.30926 -0.34067,-0.30926 -0.48564,-0.90398 l 0.73208,-0.30926 q 0.087,0.37269 0.23196,0.57094 0.14496,0.19824 0.37691,0.19824 0.17396,0 0.26094,-0.0952 0.087,-0.0952 0.087,-0.26168 0,-0.19031 -0.10876,-0.34098 -0.10143,-0.15859 -0.35517,-0.38855 l -0.50738,-0.46785 q -0.27543,-0.26168 -0.4494,-0.53129 -0.16672,-0.27754 -0.16672,-0.68988 0,-0.37269 0.15222,-0.63437 0.15946,-0.26961 0.42766,-0.41235 0.27543,-0.15066 0.60885,-0.15066 0.5074,0 0.81183,0.33305 0.31168,0.32511 0.39866,0.8564 l -0.6451,0.30133 q -0.0363,-0.19031 -0.10876,-0.34891 -0.0652,-0.16652 -0.17396,-0.2696 -0.10876,-0.10308 -0.25369,-0.10308 -0.15221,0 -0.24644,0.10308 -0.087,0.10308 -0.087,0.26167 0,0.13481 0.10143,0.27754 0.10876,0.14274 0.30443,0.32512 l 0.51462,0.5075 q 0.16673,0.15859 0.31894,0.34097 0.15221,0.18239 0.25369,0.41235 0.10143,0.22203 0.10143,0.51542 0,0.39649 -0.16671,0.6661 -0.15947,0.26961 -0.44215,0.41234 -0.27545,0.1348 -0.61611,0.1348 z"
         style="font-style:normal;font-variant:normal;font-weight:500;font-stretch:normal;font-size:153.12px;line-height:1;font-family:Oswald;-inkscape-font-specification:'Oswald Medium';text-align:end;letter-spacing:0px;word-spacing:0px;text-anchor:end;fill:#666666;fill-opacity:1;stroke:none;stroke-width:0.0495125"
         id="path9737-5"
         inkscape:connector-curvature="0" />
      <text
         id="text6008-4-2"
         y="306.03491"
         x="168.47832"
         style="font-style:normal;font-variant:normal;font-weight:bold;font-stretch:normal;font-size:56.215px;line-height:1.25;font-family:sans-serif;-inkscape-font-specification:'sans-serif Bold';letter-spacing:0px;word-spacing:0px;fill:#666666;fill-opacity:1;stroke:none;stroke-width:0.292787"
         xml:space="preserve"><tspan
           style="font-style:normal;font-variant:normal;font-weight:bold;font-stretch:normal;font-size:18.7383px;font-family:Oswald;-inkscape-font-specification:'Oswald Bold';fill:#666666;fill-opacity:1;stroke-width:0.292787"
           y="306.03491"
           x="168.47832"
           id="tspan6006-0-2"
           sodipodi:role="line">&gt;</tspan></text>
      <text
         id="text6012-7-2"
         y="306.03491"
         x="157.57156"
         style="font-style:normal;font-variant:normal;font-weight:bold;font-stretch:normal;font-size:56.215px;line-height:1.25;font-family:sans-serif;-inkscape-font-specification:'sans-serif Bold';letter-spacing:0px;word-spacing:0px;fill:#666666;fill-opacity:1;stroke:none;stroke-width:0.292787"
         xml:space="preserve"><tspan
           style="font-style:normal;font-variant:normal;font-weight:bold;font-stretch:normal;font-size:18.7383px;font-family:Oswald;-inkscape-font-specification:'Oswald Bold';fill:#666666;fill-opacity:1;stroke-width:0.292787"
           y="306.03491"
           x="157.57156"
           id="tspan6010-6-5"
           sodipodi:role="line">&lt;</tspan></text>
      <text
         id="text6016-2-4"
         y="306.50339"
         x="162.77197"
         style="font-style:normal;font-variant:normal;font-weight:bold;font-stretch:normal;font-size:56.215px;line-height:1.25;font-family:sans-serif;-inkscape-font-specification:'sans-serif Bold';letter-spacing:0px;word-spacing:0px;fill:#666666;fill-opacity:1;stroke:none;stroke-width:0.292787"
         xml:space="preserve"><tspan
           style="font-style:normal;font-variant:normal;font-weight:bold;font-stretch:normal;font-size:18.7383px;font-family:Oswald;-inkscape-font-specification:'Oswald Bold';fill:#666666;fill-opacity:1;stroke-width:0.292787"
           y="306.50339"
           x="162.77197"
           id="tspan6014-6-8"
           sodipodi:role="line">/</tspan></text>
      <rect
         ry="0"
         y="293.58276"
         x="216.73854"
         height="2.1806266"
         width="2.1806266"
         id="rect6018-5-6"
         style="fill:#666666;fill-opacity:1;stroke:none;stroke-width:0.952887;stroke-linecap:round;stroke-miterlimit:4;stroke-dasharray:none;stroke-dashoffset:0;stroke-opacity:1" />
      <rect
         ry="0"
         y="297.0994"
         x="216.73854"
         height="2.1806266"
         width="2.1806266"
         id="rect6020-0-3"
         style="fill:#666666;fill-opacity:1;stroke:none;stroke-width:0.952887;stroke-linecap:round;stroke-miterlimit:4;stroke-dasharray:none;stroke-dashoffset:0;stroke-opacity:1" />
      <rect
         ry="0"
         y="300.616"
         x="216.73854"
         height="2.1806266"
         width="2.1806266"
         id="rect6022-2-2"
         style="fill:#666666;fill-opacity:1;stroke:none;stroke-width:0.952887;stroke-linecap:round;stroke-miterlimit:4;stroke-dasharray:none;stroke-dashoffset:0;stroke-opacity:1" />
      <rect
         ry="0"
         y="304.13263"
         x="216.73854"
         height="2.1806266"
         width="2.1806266"
         id="rect6024-2-7"
         style="fill:#666666;fill-opacity:1;stroke:none;stroke-width:0.952887;stroke-linecap:round;stroke-miterlimit:4;stroke-dasharray:none;stroke-dashoffset:0;stroke-opacity:1" />
      <text
         id="text6028-3-7"
         y="309.4675"
         x="191.00241"
         style="font-style:normal;font-variant:normal;font-weight:normal;font-stretch:normal;font-size:2.34229px;line-height:1.25;font-family:sans-serif;-inkscape-font-specification:sans-serif;letter-spacing:0px;word-spacing:0px;fill:#666666;fill-opacity:1;stroke:none;stroke-width:0.0724396"
         xml:space="preserve"><tspan
           style="font-style:normal;font-variant:normal;font-weight:normal;font-stretch:normal;font-size:2.34229px;font-family:Cuprum;-inkscape-font-specification:Cuprum;fill:#666666;fill-opacity:1;stroke-width:0.0724396"
           y="309.4675"
           x="191.00241"
           id="tspan6026-8-7"
           sodipodi:role="line">UNIVERSIDAD DEL PACÍFICO</tspan></text>
    </g>
  </g>
</svg>
